<svg width="31" height="31" viewBox="0 0 31 31" fill="none" xmlns="http://www.w3.org/2000/svg">
<g clip-path="url(#clip0_1_15)">
<path d="M24.5007 19.2033C23.866 18.5424 23.1005 18.1891 22.2892 18.1891C21.4845 18.1891 20.7124 18.5359 20.0516 19.1967L17.9841 21.2577C17.814 21.1661 17.6438 21.081 17.4803 20.996C17.2447 20.8782 17.0223 20.767 16.8325 20.6492C14.8959 19.4192 13.1359 17.8162 11.4479 15.7421C10.63 14.7084 10.0804 13.8382 9.68131 12.9549C10.2178 12.4642 10.7151 11.9539 11.1992 11.4632C11.3824 11.28 11.5656 11.0902 11.7488 10.907C13.1228 9.53306 13.1228 7.75343 11.7488 6.37945L9.96264 4.59327C9.75982 4.39045 9.55045 4.18108 9.35417 3.97171C8.9616 3.56606 8.54941 3.14732 8.12413 2.75475C7.48948 2.12665 6.73052 1.79297 5.9323 1.79297C5.13409 1.79297 4.36204 2.12665 3.70776 2.75475C3.70122 2.7613 3.70122 2.7613 3.69468 2.76784L1.47014 5.01201C0.632666 5.84948 0.155044 6.87015 0.05036 8.05439C-0.106666 9.96488 0.456011 11.7445 0.887834 12.9091C1.94776 15.7683 3.53111 18.4181 5.89305 21.2577C8.75878 24.6796 12.2068 27.3817 16.1456 29.2857C17.6504 29.9988 19.659 30.8428 21.9032 30.9868C22.0406 30.9933 22.1845 30.9999 22.3154 30.9999C23.8268 30.9999 25.0961 30.4568 26.0906 29.3773C26.0971 29.3642 26.1102 29.3576 26.1167 29.3445C26.4569 28.9324 26.8495 28.5594 27.2617 28.1603C27.543 27.8921 27.8309 27.6107 28.1123 27.3163C28.76 26.6424 29.1002 25.8573 29.1002 25.0525C29.1002 24.2412 28.7535 23.4626 28.0926 22.8083L24.5007 19.2033ZM26.843 26.0928C26.8364 26.0928 26.8364 26.0993 26.843 26.0928C26.5878 26.3676 26.3261 26.6162 26.0448 26.891C25.6195 27.2967 25.1877 27.7219 24.782 28.1996C24.1212 28.9062 23.3426 29.2399 22.3219 29.2399C22.2238 29.2399 22.1191 29.2399 22.021 29.2333C20.0778 29.109 18.272 28.35 16.9176 27.7023C13.2144 25.9096 9.96265 23.3645 7.26048 20.1389C5.0294 17.4498 3.53765 14.9636 2.5497 12.2941C1.94122 10.665 1.71876 9.39566 1.81691 8.19833C1.88233 7.43283 2.17676 6.79818 2.71981 6.25513L4.95089 4.02405C5.27148 3.72308 5.61171 3.55951 5.94539 3.55951C6.35758 3.55951 6.69126 3.80814 6.90063 4.01751C6.90718 4.02405 6.91372 4.03059 6.92026 4.03714C7.31937 4.41007 7.69885 4.7961 8.09796 5.20829C8.30078 5.41766 8.51015 5.62703 8.71952 5.84294L10.5057 7.62911C11.1992 8.32265 11.1992 8.96384 10.5057 9.65737C10.316 9.84711 10.1328 10.0369 9.94302 10.22C9.39342 10.7827 8.87 11.3061 8.30078 11.8165C8.2877 11.8296 8.27461 11.8361 8.26807 11.8492C7.70539 12.4119 7.81008 12.9615 7.92785 13.3344C7.93439 13.354 7.94093 13.3737 7.94747 13.3933C8.41201 14.5186 9.06629 15.5786 10.0608 16.8413L10.0673 16.8479C11.8731 19.0724 13.7771 20.8062 15.8773 22.1344C16.1456 22.3045 16.4204 22.4419 16.6821 22.5728C16.9176 22.6906 17.1401 22.8018 17.3298 22.9196C17.356 22.9326 17.3821 22.9523 17.4083 22.9654C17.6308 23.0766 17.8401 23.1289 18.056 23.1289C18.5991 23.1289 18.9393 22.7887 19.0505 22.6775L21.2882 20.4398C21.5106 20.2174 21.8639 19.9491 22.2761 19.9491C22.6818 19.9491 23.0155 20.2043 23.2183 20.4268C23.2248 20.4333 23.2248 20.4333 23.2314 20.4398L26.8364 24.0449C27.5103 24.7123 27.5103 25.3993 26.843 26.0928Z" fill="#0067FF"/>
<path d="M16.7544 7.37427C18.4686 7.66215 20.0258 8.47345 21.2689 9.71658C22.512 10.9597 23.3168 12.5169 23.6112 14.2311C23.6832 14.6629 24.0561 14.9639 24.4814 14.9639C24.5337 14.9639 24.5795 14.9573 24.6319 14.9508C25.116 14.8723 25.4366 14.4143 25.3581 13.9301C25.0048 11.8561 24.0234 9.9652 22.5251 8.46691C21.0268 6.96862 19.136 5.9872 17.0619 5.6339C16.5777 5.55538 16.1263 5.87598 16.0412 6.3536C15.9562 6.83122 16.2702 7.29576 16.7544 7.37427Z" fill="#0067FF"/>
<path d="M30.9646 13.6748C30.3823 10.2594 28.7728 7.15162 26.2996 4.67845C23.8264 2.20529 20.7186 0.595772 17.3033 0.013466C16.8257 -0.0715899 16.3742 0.255548 16.2892 0.73317C16.2106 1.21733 16.5312 1.66878 17.0154 1.75384C20.0643 2.27072 22.845 3.71667 25.0565 5.92158C27.2679 8.13303 28.7073 10.9137 29.2242 13.9626C29.2962 14.3945 29.6691 14.6954 30.0944 14.6954C30.1467 14.6954 30.1925 14.6889 30.2449 14.6823C30.7225 14.6104 31.0496 14.1524 30.9646 13.6748Z" fill="#0067FF"/>
</g>
<defs>
<clipPath id="clip0_1_15">
<rect width="31" height="31" fill="white"/>
</clipPath>
</defs>
</svg>
