<svg width="30" height="30" viewBox="0 0 30 30" fill="none" xmlns="http://www.w3.org/2000/svg">
<path d="M24.5007 18.2033C23.866 17.5424 23.1005 17.1891 22.2892 17.1891C21.4844 17.1891 20.7124 17.5359 20.0516 18.1967L17.9841 20.2577C17.814 20.1661 17.6438 20.081 17.4803 19.996C17.2447 19.8782 17.0223 19.767 16.8325 19.6492C14.8959 18.4192 13.1359 16.8162 11.4479 14.7421C10.63 13.7084 10.0804 12.8382 9.68131 11.9549C10.2178 11.4642 10.7151 10.9539 11.1992 10.4632C11.3824 10.28 11.5656 10.0902 11.7488 9.90704C13.1228 8.53306 13.1228 6.75343 11.7488 5.37945L9.96264 3.59327C9.75982 3.39045 9.55045 3.18108 9.35417 2.97171C8.9616 2.56606 8.54941 2.14732 8.12413 1.75475C7.48948 1.12665 6.73052 0.792969 5.9323 0.792969C5.13409 0.792969 4.36204 1.12665 3.70776 1.75475C3.70122 1.7613 3.70122 1.7613 3.69468 1.76784L1.47014 4.01201C0.632666 4.84948 0.155044 5.87015 0.05036 7.05439C-0.106666 8.96488 0.456011 10.7445 0.887834 11.9091C1.94776 14.7683 3.53111 17.4181 5.89305 20.2577C8.75878 23.6796 12.2068 26.3817 16.1456 28.2857C17.6504 28.9988 19.659 29.8428 21.9032 29.9868C22.0406 29.9933 22.1845 29.9999 22.3154 29.9999C23.8268 29.9999 25.0961 29.4568 26.0906 28.3773C26.0971 28.3642 26.1102 28.3576 26.1167 28.3445C26.4569 27.9324 26.8495 27.5594 27.2617 27.1603C27.543 26.8921 27.8309 26.6107 28.1123 26.3163C28.76 25.6424 29.1002 24.8573 29.1002 24.0525C29.1002 23.2412 28.7535 22.4626 28.0926 21.8083L24.5007 18.2033ZM26.843 25.0928C26.8364 25.0928 26.8364 25.0993 26.843 25.0928C26.5878 25.3676 26.3261 25.6162 26.0448 25.891C25.6195 26.2967 25.1877 26.7219 24.782 27.1996C24.1212 27.9062 23.3426 28.2399 22.3219 28.2399C22.2238 28.2399 22.1191 28.2399 22.021 28.2333C20.0778 28.109 18.272 27.35 16.9176 26.7023C13.2144 24.9096 9.96265 22.3645 7.26048 19.1389C5.0294 16.4498 3.53765 13.9636 2.5497 11.2941C1.94122 9.66496 1.71876 8.39566 1.81691 7.19833C1.88233 6.43283 2.17676 5.79818 2.71981 5.25513L4.95089 3.02405C5.27148 2.72308 5.61171 2.55951 5.94539 2.55951C6.35758 2.55951 6.69126 2.80814 6.90063 3.01751C6.90718 3.02405 6.91372 3.03059 6.92026 3.03714C7.31937 3.41007 7.69885 3.7961 8.09796 4.20829C8.30078 4.41766 8.51015 4.62703 8.71952 4.84294L10.5057 6.62911C11.1992 7.32265 11.1992 7.96384 10.5057 8.65737C10.316 8.84711 10.1328 9.03685 9.94302 9.22005C9.39342 9.78273 8.87 10.3061 8.30078 10.8165C8.2877 10.8296 8.27461 10.8361 8.26807 10.8492C7.70539 11.4119 7.81008 11.9615 7.92785 12.3344C7.93439 12.354 7.94093 12.3737 7.94747 12.3933C8.41201 13.5186 9.06629 14.5786 10.0608 15.8413L10.0673 15.8479C11.8731 18.0724 13.7771 19.8062 15.8773 21.1344C16.1456 21.3045 16.4204 21.4419 16.6821 21.5728C16.9176 21.6906 17.1401 21.8018 17.3298 21.9196C17.356 21.9326 17.3821 21.9523 17.4083 21.9654C17.6308 22.0766 17.8401 22.1289 18.056 22.1289C18.5991 22.1289 18.9393 21.7887 19.0505 21.6775L21.2882 19.4398C21.5106 19.2174 21.8639 18.9491 22.2761 18.9491C22.6818 18.9491 23.0155 19.2043 23.2183 19.4268C23.2248 19.4333 23.2248 19.4333 23.2314 19.4398L26.8364 23.0449C27.5103 23.7123 27.5103 24.3993 26.843 25.0928Z" fill="#0067FF"/>
</svg>
