<svg width="31" height="31" viewBox="0 0 31 31" fill="none" xmlns="http://www.w3.org/2000/svg">
<g clip-path="url(#clip0_1_44)">
<path d="M18.4668 15.5C18.4668 17.1385 17.1385 18.4668 15.5 18.4668C13.8615 18.4668 12.5332 17.1385 12.5332 15.5C12.5332 13.8615 13.8615 12.5332 15.5 12.5332C17.1385 12.5332 18.4668 13.8615 18.4668 15.5Z" fill="#0067FF"/>
<path d="M22.4383 10.2511C22.2956 9.86463 22.0681 9.51483 21.7725 9.22771C21.4854 8.93207 21.1358 8.70454 20.7491 8.56193C20.4355 8.44012 19.9644 8.29514 19.0966 8.25565C18.1579 8.21284 17.8764 8.20361 15.5 8.20361C13.1233 8.20361 12.8418 8.2126 11.9033 8.25541C11.0356 8.29514 10.5642 8.44012 10.2508 8.56193C9.86414 8.70454 9.51434 8.93207 9.22746 9.22771C8.93182 9.51483 8.70429 9.8644 8.56144 10.2511C8.43964 10.5647 8.29465 11.0361 8.25516 11.9038C8.21235 12.8423 8.20312 13.1238 8.20312 15.5005C8.20312 17.8769 8.21235 18.1584 8.25516 19.0971C8.29465 19.9648 8.43964 20.436 8.56144 20.7496C8.70429 21.1363 8.93158 21.4858 9.22722 21.773C9.51434 22.0686 9.86391 22.2961 10.2506 22.4388C10.5642 22.5608 11.0356 22.7058 11.9033 22.7453C12.8418 22.7881 13.123 22.7971 15.4997 22.7971C17.8767 22.7971 18.1581 22.7881 19.0964 22.7453C19.9641 22.7058 20.4355 22.5608 20.7491 22.4388C21.5253 22.1393 22.1388 21.5258 22.4383 20.7496C22.5601 20.436 22.705 19.9648 22.7448 19.0971C22.7876 18.1584 22.7966 17.8769 22.7966 15.5005C22.7966 13.1238 22.7876 12.8423 22.7448 11.9038C22.7053 11.0361 22.5603 10.5647 22.4383 10.2511ZM15.5 20.0706C12.9757 20.0706 10.9294 18.0245 10.9294 15.5002C10.9294 12.9759 12.9757 10.9299 15.5 10.9299C18.024 10.9299 20.0703 12.9759 20.0703 15.5002C20.0703 18.0245 18.024 20.0706 15.5 20.0706ZM20.251 11.8173C19.6611 11.8173 19.1829 11.339 19.1829 10.7492C19.1829 10.1593 19.6611 9.6811 20.251 9.6811C20.8409 9.6811 21.3191 10.1593 21.3191 10.7492C21.3189 11.339 20.8409 11.8173 20.251 11.8173Z" fill="#0067FF"/>
<path d="M15.5 0C6.9409 0 0 6.9409 0 15.5C0 24.0591 6.9409 31 15.5 31C24.0591 31 31 24.0591 31 15.5C31 6.9409 24.0591 0 15.5 0ZM24.3467 19.1695C24.3037 20.1169 24.153 20.7638 23.933 21.33C23.4707 22.5256 22.5256 23.4707 21.33 23.933C20.764 24.153 20.1169 24.3034 19.1697 24.3467C18.2206 24.39 17.9174 24.4004 15.5002 24.4004C13.0829 24.4004 12.7799 24.39 11.8305 24.3467C10.8833 24.3034 10.2362 24.153 9.67023 23.933C9.07612 23.7095 8.53829 23.3593 8.09365 22.9063C7.64097 22.4619 7.2907 21.9239 7.06719 21.33C6.84724 20.764 6.69658 20.1169 6.65353 19.1697C6.60978 18.2204 6.59961 17.9171 6.59961 15.5C6.59961 13.0829 6.60978 12.7796 6.6533 11.8305C6.69634 10.8831 6.84676 10.2362 7.06672 9.67C7.29022 9.07612 7.64073 8.53806 8.09365 8.09365C8.53806 7.64073 9.07612 7.29046 9.67 7.06696C10.2362 6.847 10.8831 6.69658 11.8305 6.6533C12.7796 6.61002 13.0829 6.59961 15.5 6.59961C17.9171 6.59961 18.2204 6.61002 19.1695 6.65353C20.1169 6.69658 20.7638 6.847 21.33 7.06672C21.9239 7.29022 22.4619 7.64073 22.9066 8.09365C23.3593 8.53829 23.7098 9.07612 23.933 9.67C24.1532 10.2362 24.3037 10.8831 24.3469 11.8305C24.3902 12.7796 24.4004 13.0829 24.4004 15.5C24.4004 17.9171 24.3902 18.2204 24.3467 19.1695Z" fill="#0067FF"/>
</g>
<defs>
<clipPath id="clip0_1_44">
<rect width="31" height="31" fill="white"/>
</clipPath>
</defs>
</svg>
