<svg width="31" height="23" viewBox="0 0 31 23" fill="none" xmlns="http://www.w3.org/2000/svg">
<path d="M28.1818 0.227051H2.81815C1.26174 0.227051 0 1.48879 0 3.04527V19.9544C0 21.5108 1.26174 22.7725 2.81815 22.7725H28.1818C29.7382 22.7725 30.9999 21.5108 30.9999 19.9544V3.04527C31 1.48879 29.7383 0.227051 28.1818 0.227051ZM2.81815 1.63616H28.1818C28.3428 1.63719 28.5024 1.66577 28.6538 1.72068L16.4582 13.9164C15.9344 14.4436 15.0823 14.4464 14.5551 13.9226C14.553 13.9206 14.5509 13.9185 14.5489 13.9164L2.34613 1.72068C2.4975 1.66577 2.65716 1.63713 2.81815 1.63616ZM1.40911 19.9543V3.04527C1.4019 2.96322 1.4019 2.8807 1.40911 2.79866L10.1314 11.4998L1.40911 20.2009C1.4019 20.1189 1.4019 20.0364 1.40911 19.9543ZM28.1818 21.3634H2.81815C2.65716 21.3624 2.4975 21.3338 2.34613 21.2789L11.1318 12.4932L13.5484 14.9099C14.6222 15.9877 16.3664 15.991 17.4442 14.9172C17.4467 14.9148 17.4491 14.9123 17.4515 14.9099L19.8682 12.4932L28.6538 21.2789C28.5025 21.3338 28.3428 21.3625 28.1818 21.3634ZM29.5909 20.2009L20.8686 11.4998L29.5909 2.79866C29.5981 2.8807 29.5981 2.96322 29.5909 3.04527V19.9544C29.5981 20.0364 29.5981 20.1189 29.5909 20.2009Z" fill="#0067FF"/>
</svg>
