<svg width="31" height="31" viewBox="0 0 31 31" fill="none" xmlns="http://www.w3.org/2000/svg">
<path fill-rule="evenodd" clip-rule="evenodd" d="M21.6632 12.339C21.669 12.4756 21.6729 12.6122 21.6729 12.7507C21.6729 16.9522 18.4741 21.7978 12.6247 21.7978C10.8287 21.7978 9.15759 21.2718 7.75 20.3699C7.99897 20.399 8.25181 20.4135 8.50853 20.4135C9.99847 20.4135 11.3692 19.9059 12.4581 19.0524C11.066 19.0272 9.89191 18.1079 9.48697 16.8446C9.68169 16.8814 9.88028 16.9008 10.0857 16.9008C10.3753 16.9008 10.6562 16.8621 10.9236 16.7894C9.46856 16.4978 8.37291 15.2123 8.37291 13.672V13.6313C8.80109 13.8696 9.29225 14.013 9.81344 14.0294C8.95997 13.4588 8.39809 12.4853 8.39809 11.3828C8.39809 10.7996 8.55503 10.2533 8.82919 9.78341C10.3976 11.7073 12.741 12.9735 15.3837 13.1062C15.3295 12.8737 15.3014 12.6306 15.3014 12.3816C15.3014 10.6252 16.7255 9.20119 18.4808 9.20119C19.3963 9.20119 20.2227 9.58772 20.802 10.2058C21.5266 10.0634 22.2076 9.79891 22.8218 9.43466C22.5845 10.1767 22.0798 10.7996 21.4239 11.1939C22.0672 11.1164 22.6794 10.9459 23.25 10.6931C22.8237 11.3305 22.2842 11.8904 21.6632 12.339ZM15.5 0C6.93916 0 0 6.93916 0 15.5C0 24.0599 6.93916 31 15.5 31C24.0608 31 31 24.0599 31 15.5C31 6.93916 24.0608 0 15.5 0" fill="#0067FF"/>
</svg>
