<svg width="31" height="31" viewBox="0 0 31 31" fill="none" xmlns="http://www.w3.org/2000/svg">
<path d="M15.5 0C12.4343 0 9.43758 0.909059 6.88861 2.61222C4.33965 4.31538 2.35297 6.73615 1.17981 9.56841C0.00665484 12.4007 -0.300297 15.5172 0.297774 18.5239C0.895846 21.5306 2.37208 24.2924 4.5398 26.4602C6.70751 28.6279 9.46935 30.1041 12.4761 30.7022C15.4828 31.3002 18.5993 30.9933 21.4316 29.8201C24.2638 28.647 26.6846 26.6603 28.3878 24.1113C30.0909 21.5624 31 18.5656 31 15.5C31 11.3891 29.3669 7.44666 26.4601 4.53984C23.5533 1.63303 19.6108 0 15.5 0V0ZM23.6579 18.2431C23.6581 18.6485 23.5785 19.05 23.4236 19.4246C23.2686 19.7992 23.0414 20.1396 22.7548 20.4263C22.4682 20.7131 22.128 20.9406 21.7535 21.0958C21.379 21.251 20.9775 21.3309 20.5721 21.3309H10.4278C10.0224 21.3309 9.62097 21.251 9.24646 21.0958C8.87195 20.9406 8.53169 20.7131 8.24513 20.4263C7.95856 20.1396 7.73131 19.7992 7.57636 19.4246C7.42141 19.05 7.34179 18.6485 7.34206 18.2431V12.7569C7.34179 12.3515 7.42141 11.95 7.57636 11.5754C7.73131 11.2008 7.95856 10.8604 8.24513 10.5737C8.53169 10.2869 8.87195 10.0594 9.24646 9.90423C9.62097 9.74903 10.0224 9.66915 10.4278 9.66915H20.5721C20.9775 9.66915 21.379 9.74903 21.7535 9.90423C22.128 10.0594 22.4682 10.2869 22.7548 10.5737C23.0414 10.8604 23.2686 11.2008 23.4236 11.5754C23.5785 11.95 23.6581 12.3515 23.6579 12.7569V18.2431Z" fill="#0067FF"/>
</svg>
