<svg width="30" height="30" viewBox="0 0 30 30" fill="none" xmlns="http://www.w3.org/2000/svg">
<path d="M13.9626 11.8204H12.1667V10.0245C12.1667 9.85867 12.0324 9.72449 11.8667 9.72449H9.13042C8.96475 9.72449 8.83042 9.85867 8.83042 10.0245V11.8204H7.03437C6.8687 11.8204 6.73438 11.9546 6.73438 12.1204V14.8567C6.73438 15.0225 6.8687 15.1567 7.03437 15.1567H8.83042V16.9526C8.83042 17.1184 8.96475 17.2526 9.13042 17.2526H11.8667C12.0324 17.2526 12.1667 17.1184 12.1667 16.9526V15.1567H13.9626C14.1283 15.1567 14.2626 15.0225 14.2626 14.8567V12.1204C14.2626 11.9546 14.1283 11.8204 13.9626 11.8204ZM13.6626 14.5567H11.8667C11.7011 14.5567 11.5667 14.6909 11.5667 14.8567V16.6526H9.43042V14.8567C9.43042 14.6909 9.29609 14.5567 9.13042 14.5567H7.33437V12.4204H9.13042C9.29609 12.4204 9.43042 12.2862 9.43042 12.1204V10.3245H11.5667V12.1204C11.5667 12.2862 11.7011 12.4204 11.8667 12.4204H13.6626V14.5567Z" fill="white"/>
<path d="M3.3 23.9774H12V26.7C12 26.8658 12.1343 27 12.3 27H26.7C26.8657 27 27 26.8658 27 26.7V6.32256C27 6.15674 26.8657 6.02256 26.7 6.02256H24.5851V5.56025C25.1339 5.33818 25.4848 4.7666 25.4092 4.16045C25.3267 3.49893 24.7368 3 24.0373 3H20.7645C20.0648 3 19.4751 3.49893 19.3928 4.16045C19.3172 4.7666 19.668 5.33818 20.2169 5.56025V6.02256H18V3.3C18 3.13418 17.8657 3 17.7 3H3.3C3.13433 3 3 3.13418 3 3.3V23.6774C3 23.8433 3.13433 23.9774 3.3 23.9774ZM16.5442 23.9774L12.6 26.1732V23.9774H16.5442ZM19.9881 4.23486C20.0325 3.87891 20.3735 3.6 20.7645 3.6H24.0373C24.4283 3.6 24.7695 3.87891 24.8139 4.23486C24.8619 4.6207 24.6098 4.96846 24.2273 5.04346C24.0866 5.071 23.9851 5.19434 23.9851 5.33789V21.3044C23.9851 22.1704 23.2745 22.875 22.401 22.875C21.5275 22.875 20.8169 22.1704 20.8169 21.3044V5.33789C20.8169 5.19434 20.7154 5.071 20.5746 5.04346C20.1921 4.96846 19.94 4.6207 19.9881 4.23486ZM20.2169 6.62256V21.3044C20.2169 22.5012 21.1967 23.475 22.401 23.475C23.6052 23.475 24.5851 22.5012 24.5851 21.3044V6.62256H26.4V26.4H13.4263L17.8459 23.9396C17.8578 23.933 17.8651 23.9221 17.8758 23.9141C17.8926 23.9016 17.9088 23.8898 17.9226 23.8741C17.9355 23.8595 17.9447 23.8435 17.9543 23.827C17.9641 23.8105 17.9735 23.7947 17.98 23.7764C17.987 23.7566 17.9895 23.7366 17.9923 23.7157C17.994 23.7026 18 23.691 18 23.6774V6.62256H20.2169ZM3.6 3.6H17.4V23.3774H3.6V3.6Z" fill="white"/>
<path d="M22.8664 14.6842C23.0321 14.6842 23.1664 14.55 23.1664 14.3842V13.28C23.1664 13.1142 23.0321 12.98 22.8664 12.98C22.7007 12.98 22.5664 13.1142 22.5664 13.28V14.3842C22.5664 14.55 22.7007 14.6842 22.8664 14.6842Z" fill="white"/>
<path d="M22.8664 19.6421C23.0321 19.6421 23.1664 19.5079 23.1664 19.3421V16.0828C23.1664 15.917 23.0321 15.7828 22.8664 15.7828C22.7007 15.7828 22.5664 15.917 22.5664 16.0828V19.3421C22.5664 19.5079 22.7007 19.6421 22.8664 19.6421Z" fill="white"/>
</svg>
