<svg width="30" height="30" viewBox="0 0 30 30" fill="none" xmlns="http://www.w3.org/2000/svg">
<path d="M28.418 10.5872C27.5716 9.74121 26.0371 9.76776 25.1605 10.6439L23.4375 12.3669V3.28125C23.4375 1.98853 22.386 0.9375 21.0938 0.9375H8.4375C8.18893 0.9375 7.95044 1.03638 7.77466 1.21216L1.21216 7.77466C1.03638 7.95044 0.9375 8.18848 0.9375 8.4375V26.7188C0.9375 28.0115 1.98898 29.0625 3.28125 29.0625H21.0938C22.386 29.0625 23.4375 28.0115 23.4375 26.7188V18.7683L28.3612 13.8446C29.2749 12.9309 29.3005 11.4697 28.418 10.5872ZM24.0051 14.4507L24.5544 15L18.7624 20.7916L17.6637 21.3409L18.213 20.2432L24.0051 14.4507ZM7.5 4.13818V7.03125C7.5 7.28577 7.28531 7.5 7.03125 7.5H4.13818L7.5 4.13818ZM21.5625 26.7188C21.5625 26.9733 21.3478 27.1875 21.0938 27.1875H3.28125C3.02719 27.1875 2.8125 26.9733 2.8125 26.7188V9.375H7.03125C8.32352 9.375 9.375 8.32397 9.375 7.03125V2.8125H21.0938C21.3478 2.8125 21.5625 3.02673 21.5625 3.28125V14.2419L16.7798 19.0247C16.7084 19.0961 16.6493 19.1785 16.604 19.2682L14.729 23.0182C14.5486 23.3789 14.6196 23.8147 14.9048 24.1003C15.0847 24.2807 15.3246 24.375 15.5681 24.375C15.71 24.375 15.8537 24.343 15.9869 24.2761L19.7369 22.4011C19.8271 22.3563 19.9095 22.2968 19.9805 22.2253L21.5625 20.6433V26.7188ZM27.0355 12.5189L25.8801 13.6743L25.3308 13.125L26.4862 11.9696C26.6368 11.8195 26.8698 11.6913 27.0923 11.9128C27.2411 12.0621 27.215 12.3395 27.0355 12.5189ZM9.10034 12.4622C9.46655 12.8284 9.46655 13.4216 9.10034 13.7878L7.22534 15.6628C7.04224 15.8459 6.80237 15.9375 6.5625 15.9375C6.32263 15.9375 6.08276 15.8459 5.89966 15.6628L4.96216 14.7253C4.59595 14.3591 4.59595 13.7659 4.96216 13.3997C5.32837 13.0334 5.92163 13.0334 6.28784 13.3997L6.5625 13.6743L7.77466 12.4622C8.14087 12.0959 8.73413 12.0959 9.10034 12.4622ZM9.10034 17.1497C9.46655 17.5159 9.46655 18.1091 9.10034 18.4753L7.22534 20.3503C7.04224 20.5334 6.80237 20.625 6.5625 20.625C6.32263 20.625 6.08276 20.5334 5.89966 20.3503L4.96216 19.4128C4.59595 19.0466 4.59595 18.4534 4.96216 18.0872C5.32837 17.7209 5.92163 17.7209 6.28784 18.0872L6.5625 18.3618L7.77466 17.1497C8.14087 16.7834 8.73413 16.7834 9.10034 17.1497ZM9.10034 21.8372C9.46655 22.2034 9.46655 22.7966 9.10034 23.1628L7.22534 25.0378C7.04224 25.2209 6.80237 25.3125 6.5625 25.3125C6.32263 25.3125 6.08276 25.2209 5.89966 25.0378L4.96216 24.1003C4.59595 23.7341 4.59595 23.1409 4.96216 22.7747C5.32837 22.4084 5.92163 22.4084 6.28784 22.7747L6.5625 23.0493L7.77466 21.8372C8.14087 21.4709 8.73413 21.4709 9.10034 21.8372ZM10.3125 14.0625C10.3125 13.5443 10.7323 13.125 11.25 13.125H18.75C19.2677 13.125 19.6875 13.5443 19.6875 14.0625C19.6875 14.5807 19.2677 15 18.75 15H11.25C10.7323 15 10.3125 14.5807 10.3125 14.0625ZM14.0625 19.6875H11.25C10.7323 19.6875 10.3125 19.2682 10.3125 18.75C10.3125 18.2318 10.7323 17.8125 11.25 17.8125H14.0625C14.5802 17.8125 15 18.2318 15 18.75C15 19.2682 14.5802 19.6875 14.0625 19.6875ZM14.0625 23.4375C14.0625 23.9557 13.6427 24.375 13.125 24.375H11.25C10.7323 24.375 10.3125 23.9557 10.3125 23.4375C10.3125 22.9193 10.7323 22.5 11.25 22.5H13.125C13.6427 22.5 14.0625 22.9193 14.0625 23.4375Z" fill="white"/>
</svg>
