<svg width="30" height="30" viewBox="0 0 30 30" fill="none" xmlns="http://www.w3.org/2000/svg">
<path d="M17.5 2.5H12.5C11.5054 2.5 10.5516 2.89509 9.84835 3.59835C9.14509 4.30161 8.75 5.25544 8.75 6.25V7.5H6.25C5.25544 7.5 4.30161 7.89509 3.59835 8.59835C2.89509 9.30161 2.5 10.2554 2.5 11.25V23.75C2.5 24.7446 2.89509 25.6984 3.59835 26.4017C4.30161 27.1049 5.25544 27.5 6.25 27.5H23.75C24.7446 27.5 25.6984 27.1049 26.4017 26.4017C27.1049 25.6984 27.5 24.7446 27.5 23.75V11.25C27.5 10.2554 27.1049 9.30161 26.4017 8.59835C25.6984 7.89509 24.7446 7.5 23.75 7.5H21.25V6.25C21.25 5.25544 20.8549 4.30161 20.1517 3.59835C19.4484 2.89509 18.4946 2.5 17.5 2.5ZM11.25 6.25C11.25 5.91848 11.3817 5.60054 11.6161 5.36612C11.8505 5.1317 12.1685 5 12.5 5H17.5C17.8315 5 18.1495 5.1317 18.3839 5.36612C18.6183 5.60054 18.75 5.91848 18.75 6.25V7.5H11.25V6.25ZM25 11.25V23.75C25 24.0815 24.8683 24.3995 24.6339 24.6339C24.3995 24.8683 24.0815 25 23.75 25H6.25C5.91848 25 5.60054 24.8683 5.36612 24.6339C5.1317 24.3995 5 24.0815 5 23.75V11.25C5 10.9185 5.1317 10.6005 5.36612 10.3661C5.60054 10.1317 5.91848 10 6.25 10H23.75C24.0815 10 24.3995 10.1317 24.6339 10.3661C24.8683 10.6005 25 10.9185 25 11.25Z" fill="white"/>
<path d="M16.25 13.75H13.75V16.25H11.25V18.75H13.75V21.25H16.25V18.75H18.75V16.25H16.25V13.75Z" fill="white"/>
</svg>
