<svg width="32" height="32" viewBox="0 0 32 32" fill="none" xmlns="http://www.w3.org/2000/svg">
<path fill-rule="evenodd" clip-rule="evenodd" d="M0 16C0 7.16344 7.16344 0 16 0C24.8366 0 32 7.16344 32 16C32 24.8366 24.8366 32 16 32C7.16344 32 0 24.8366 0 16Z" fill="#4C40F7"/>
<path fill-rule="evenodd" clip-rule="evenodd" d="M16 0C7.16344 0 0 7.16344 0 16C0 24.8366 7.16344 32 16 32C24.8366 32 32 24.8366 32 16C32 7.16344 24.8366 0 16 0ZM12.8163 7.51835C13.7265 7.47693 14.0174 7.4668 16.3349 7.4668H16.3322C18.6505 7.4668 18.9403 7.47693 19.8505 7.51835C20.759 7.55995 21.3794 7.70378 21.9234 7.9148C22.4852 8.13258 22.9599 8.42414 23.4345 8.89881C23.9092 9.37313 24.2008 9.84922 24.4194 10.4105C24.6292 10.9531 24.7732 11.5732 24.8159 12.4816C24.8568 13.3918 24.8674 13.6827 24.8674 16.0002C24.8674 18.3178 24.8568 18.6079 24.8159 19.5181C24.7732 20.4262 24.6292 21.0465 24.4194 21.5893C24.2008 22.1503 23.9092 22.6264 23.4345 23.1007C22.9604 23.5754 22.485 23.8677 21.924 24.0856C21.381 24.2967 20.7602 24.4405 19.8518 24.4821C18.9415 24.5235 18.6516 24.5336 16.3338 24.5336C14.0165 24.5336 13.7258 24.5235 12.8156 24.4821C11.9073 24.4405 11.287 24.2967 10.7441 24.0856C10.1832 23.8677 9.70711 23.5754 9.23297 23.1007C8.75848 22.6264 8.46692 22.1503 8.24879 21.5891C8.03794 21.0465 7.89412 20.4264 7.85234 19.5179C7.81109 18.6077 7.80078 18.3178 7.80078 16.0002C7.80078 13.6827 7.81145 13.3917 7.85216 12.4814C7.89305 11.5733 8.03705 10.9531 8.24861 10.4103C8.46728 9.84922 8.75884 9.37313 9.23351 8.89881C9.70782 8.42432 10.1839 8.13276 10.7452 7.9148C11.2878 7.70378 11.9078 7.55995 12.8163 7.51835Z" fill="white"/>
<path fill-rule="evenodd" clip-rule="evenodd" d="M16.0509 9.004H16.0511L16.3355 9.00409C18.6139 9.00409 18.8839 9.01226 19.7837 9.05315C20.6157 9.0912 21.0673 9.23022 21.3681 9.34702C21.7663 9.50169 22.0502 9.68658 22.3487 9.98525C22.6474 10.2839 22.8323 10.5684 22.9873 10.9666C23.1041 11.267 23.2433 11.7186 23.2811 12.5506C23.322 13.4502 23.3309 13.7204 23.3309 15.9978C23.3309 18.2751 23.322 18.5453 23.2811 19.4449C23.2431 20.2769 23.1041 20.7285 22.9873 21.0289C22.8326 21.4271 22.6474 21.7107 22.3487 22.0092C22.05 22.3079 21.7665 22.4928 21.3681 22.6474C21.0676 22.7648 20.6157 22.9034 19.7837 22.9415C18.8841 22.9824 18.6139 22.9913 16.3355 22.9913C14.0569 22.9913 13.7868 22.9824 12.8873 22.9415C12.0552 22.9031 11.6037 22.7641 11.3027 22.6472C10.9045 22.4926 10.62 22.3077 10.3214 22.009C10.0227 21.7104 9.8378 21.4266 9.68278 21.0282C9.56598 20.7278 9.42678 20.2762 9.38891 19.4442C9.34802 18.5446 9.33984 18.2744 9.33984 15.9956C9.33984 13.7168 9.34802 13.448 9.38891 12.5485C9.42696 11.7165 9.56598 11.2649 9.68278 10.9641C9.83745 10.5659 10.0227 10.2814 10.3214 9.98276C10.62 9.68409 10.9045 9.4992 11.3027 9.34418C11.6035 9.22684 12.0552 9.08818 12.8873 9.04995C13.6745 9.0144 13.9795 9.00373 15.57 9.00195V9.00409C15.7186 9.00385 15.8784 9.00393 16.0509 9.004ZM20.8912 10.4208C20.3259 10.4208 19.8672 10.8789 19.8672 11.4444C19.8672 12.0098 20.3259 12.4684 20.8912 12.4684C21.4565 12.4684 21.9152 12.0098 21.9152 11.4444C21.9152 10.8791 21.4565 10.4204 20.8912 10.4204V10.4208ZM11.9531 15.999C11.9531 13.5789 13.9153 11.6167 16.3354 11.6167H16.3352C18.7553 11.6167 20.7169 13.5789 20.7169 15.999C20.7169 18.4191 18.7555 20.3803 16.3354 20.3803C13.9153 20.3803 11.9531 18.4191 11.9531 15.999Z" fill="white"/>
<path fill-rule="evenodd" clip-rule="evenodd" d="M16.3328 13.1553C17.9036 13.1553 19.1772 14.4287 19.1772 15.9997C19.1772 17.5706 17.9036 18.8442 16.3328 18.8442C14.7617 18.8442 13.4883 17.5706 13.4883 15.9997C13.4883 14.4287 14.7617 13.1553 16.3328 13.1553V13.1553Z" fill="white"/>
</svg>
