<svg width="32" height="32" viewBox="0 0 32 32" fill="none" xmlns="http://www.w3.org/2000/svg">
<path fill-rule="evenodd" clip-rule="evenodd" d="M0 16C0 7.16344 7.16344 0 16 0C24.8366 0 32 7.16344 32 16C32 24.8366 24.8366 32 16 32C7.16344 32 0 24.8366 0 16Z" fill="#4C40F7"/>
<path fill-rule="evenodd" clip-rule="evenodd" d="M16 0C7.16344 0 0 7.16344 0 16C0 24.8366 7.16344 32 16 32C24.8366 32 32 24.8366 32 16C32 7.16344 24.8366 0 16 0ZM16.2223 13.5582L16.1888 13.0046C16.088 11.5697 16.9722 10.259 18.3711 9.75059C18.886 9.56981 19.7589 9.54721 20.3297 9.70539C20.5535 9.77318 20.9788 9.99916 21.281 10.2025L21.8294 10.5754L22.4337 10.3833C22.7695 10.2816 23.2171 10.1121 23.4186 9.99916C23.6088 9.89747 23.7767 9.84097 23.7767 9.87487C23.7767 10.0669 23.3626 10.7223 23.0157 11.0838C22.5456 11.5923 22.6799 11.6375 23.6312 11.2985C24.202 11.1064 24.2132 11.1064 24.1013 11.3211C24.0341 11.4341 23.6872 11.8295 23.3179 12.1911C22.6911 12.8125 22.6576 12.8803 22.6576 13.4001C22.6576 14.2023 22.277 15.8745 21.8965 16.7897C21.1914 18.5071 19.6806 20.281 18.1697 21.1736C16.0433 22.4277 13.2118 22.7441 10.828 22.0097C10.0334 21.7611 8.66797 21.1284 8.66797 21.0154C8.66797 20.9815 9.08206 20.9363 9.58569 20.925C10.6377 20.9024 11.6897 20.6086 12.5851 20.0889L13.1894 19.7273L12.4955 19.4901C11.5107 19.1511 10.6265 18.3715 10.4027 17.6371C10.3355 17.3998 10.3579 17.3885 10.9846 17.3885L11.6338 17.3772L11.0854 17.1173C10.4363 16.7897 9.84309 16.236 9.55211 15.6711C9.33947 15.2643 9.07087 14.2362 9.14921 14.1571C9.17159 14.1232 9.40662 14.191 9.67522 14.2814C10.4474 14.5638 10.5482 14.496 10.1005 14.0215C9.26113 13.1628 9.00372 11.886 9.40662 10.6771L9.59688 10.1347L10.3355 10.8692C11.8464 12.3493 13.6259 13.2306 15.6628 13.4905L16.2223 13.5582Z" fill="white"/>
</svg>
